<?xml version="1.0" encoding="iso-8859-1"?>
<!-- Generator: Adobe Illustrator 19.0.0, SVG Export Plug-In . SVG Version: 6.00 Build 0)  -->
<svg version="1.1" id="Capa_1" xmlns="http://www.w3.org/2000/svg" xmlns:xlink="http://www.w3.org/1999/xlink" x="0px" y="0px"
	 viewBox="0 0 512.002 512.002" style="enable-background:new 0 0 512.002 512.002;" xml:space="preserve">
<g>
	<g transform="translate(1)">
		<path style="fill:#E91E63;" d="M366.532,273.068c-5.776,4.105-9.863,10.171-11.497,17.067h-0.116c-23.226,0-46.452,0-57.251-6.059
			c1.043-9.557,2.206-19.115,3.251-28.757c13.357-5.778,27.848-8.461,42.388-7.851C343.306,264.534,366.532,273.068,366.532,273.068
			z"/>
		<g>
			<path style="fill:#2296F3;" d="M220.778,260.353c-0.179-6.571-0.269-13.227-0.448-19.797c-7.354,4.653-15.907,7.056-24.608,6.912
				c-6.216-0.028-12.417-0.628-18.523-1.792c-8.056,4.973-16.935,8.469-26.219,10.325c0,0,17.897,17.067,17.897,34.133
				c-1.07,11.079-7.859,20.79-17.897,25.6c13.423,12.8,8.948,34.133,8.948,34.133c3.311,3.157,6.175,6.315,8.859,9.387
				c0-0.256,0.09-0.512,0.09-0.853c0-25.173,34.094-59.648,51.991-76.032C220.868,275.03,220.778,267.692,220.778,260.353z"/>
			<path style="fill:#2296F3;" d="M220.868,260.353c-19.441,7.289-37.742,17.317-54.347,29.781c0-17.067-18.74-34.133-18.74-34.133
				c9.676-1.843,18.962-5.335,27.454-10.325c6.401,1.165,12.891,1.765,19.397,1.792c9.067,0.157,17.996-2.238,25.768-6.912
				C220.586,247.126,220.68,253.782,220.868,260.353z"/>
		</g>
		<path style="fill:#AD1457;" d="M152.601,256.001c0,0,17.067,17.067,17.067,34.133c-0.863,10.916-7.322,20.605-17.067,25.6
			c12.8,12.8,8.533,34.133,8.533,34.133c17.067,17.067,25.6,34.133,25.6,51.2s-8.533,68.267-68.267,68.267
			c-4.199-0.003-8.392-0.317-12.544-0.939c-68.01-9.813-98.389-99.584-98.389-186.795c0-86.528,44.885-168.107,113.665-178.091
			c4.741-0.758,9.535-1.129,14.335-1.109c42.667,0,68.267,42.667,68.267,93.867S152.601,256.001,152.601,256.001z"/>
		<path style="fill:#2296F3;" d="M260.803,218.369c5.377-72.875,9.473-142.251,10.838-185.088
			c0.448-14.115,12.253-25.194,26.368-24.747c14.115,0.448,25.194,12.253,24.747,26.368c-0.512,16.469-1.451,36.608-2.645,59.392
			v0.085l-5.717,90.453c-1.621,23.04-3.327,46.763-5.205,70.485c-0.768,9.643-1.622,19.2-2.389,28.757
			c-7.169,86.187-15.617,167.424-23.041,205.483c-1.821,9.204-10.665,15.263-19.905,13.638c-9.24-1.625-15.486-10.339-14.057-19.611
			L260.803,218.369z"/>
		<path style="fill:#AD1457;" d="M502.468,238.934c0,92.416-34.133,187.733-110.933,187.733c-4.369,0.006-8.733-0.308-13.056-0.939
			c-47.957-6.827-55.211-51.627-55.211-67.328c0-17.067,8.533-34.133,25.6-51.2c-0.96-5.651-0.932-11.426,0.085-17.067
			c0.981-6.426,3.933-12.39,8.448-17.067c-9.744-4.995-16.203-14.684-17.067-25.6c0-17.067,17.067-34.133,17.067-34.133
			c-17.524-3.481-32.973-13.719-43.008-28.501c-2.638-4.26-4.623-8.891-5.888-13.739c-1.562-5.699-2.337-11.584-2.304-17.493
			c0-2.816,0.085-5.547,0.256-8.277c0.085-2.475,0.341-4.864,0.597-7.253c-0.027-0.406,0.031-0.813,0.171-1.195
			c0.171-1.963,0.426-3.84,0.768-5.717c0.08-0.981,0.252-1.952,0.513-2.901c0.202-1.55,0.487-3.088,0.853-4.608
			c0.279-1.528,0.649-3.039,1.109-4.523c0.176-1.015,0.433-2.013,0.769-2.987c0.393-1.535,0.877-3.045,1.45-4.523
			c0.337-1.28,0.764-2.535,1.279-3.754c0.147-0.503,0.348-0.99,0.598-1.451c1.502-4.162,3.357-8.187,5.547-12.032v-0.085
			c8.545-17.092,24.348-29.415,43.007-33.536c3.744-0.691,7.543-1.034,11.35-1.024C451.268,59.734,502.468,146.518,502.468,238.934z
			"/>
		<g>
			<path style="fill:#E91E63;" d="M127.001,256.001c0,0,17.067,17.067,17.067,34.133c-0.863,10.916-7.322,20.605-17.067,25.6
				c12.8,12.8,8.533,34.133,8.533,34.133c17.067,17.067,25.6,34.133,25.6,51.2c0,15.701-7.253,60.501-55.211,67.328
				c-68.01-9.813-98.389-99.584-98.389-186.795c0-86.528,44.885-168.107,113.665-178.091c35.839,6.741,57.002,46.251,57.002,92.757
				C178.201,247.468,127.001,256.001,127.001,256.001z"/>
			<path style="fill:#E91E63;" d="M476.868,238.934c0,87.211-30.379,176.981-98.389,186.795
				c-47.957-6.827-55.211-51.627-55.211-67.328c0-17.067,8.533-34.133,25.6-51.2c-0.96-5.651-0.932-11.426,0.085-17.067
				c0.981-6.426,3.933-12.39,8.448-17.067c-9.744-4.995-16.203-14.684-17.067-25.6c0-17.067,17.067-34.133,17.067-34.133
				c-17.524-3.481-32.973-13.719-43.008-28.501c-2.638-4.26-4.623-8.891-5.888-13.739c-1.562-5.699-2.337-11.584-2.304-17.493
				c0-2.816,0.085-5.547,0.256-8.277c0.085-2.475,0.341-4.864,0.597-7.253c-0.027-0.406,0.031-0.813,0.171-1.195
				c0.171-1.963,0.426-3.84,0.768-5.717c0.08-0.981,0.252-1.952,0.513-2.901c0.202-1.55,0.487-3.088,0.853-4.608
				c0.279-1.528,0.649-3.039,1.109-4.523c0.176-1.015,0.433-2.013,0.769-2.987c0.393-1.535,0.877-3.045,1.45-4.523
				c0.337-1.28,0.764-2.535,1.279-3.754c0.147-0.503,0.348-0.99,0.598-1.451c1.502-4.162,3.357-8.187,5.547-12.032v-0.085
				c8.545-17.092,24.348-29.415,43.007-33.536C431.982,70.742,476.868,152.406,476.868,238.934z"/>
			<path style="fill:#E91E63;" d="M249.502,485.689c20.592-132.653,13.864-359.733-7.569-460.49
				c-2.027-9.701-10.574-16.654-20.484-16.664h-0.003c-6.213-0.02-12.112,2.733-16.087,7.508
				c-3.975,4.775-5.613,11.075-4.467,17.182c19.82,102.714,25.818,316.368,6.872,446.3c-0.844,6.037,0.972,12.144,4.98,16.738
				c4.007,4.594,9.811,7.223,15.907,7.205C239.035,503.499,247.891,495.949,249.502,485.689z"/>
		</g>
	</g>
	<path d="M375.468,51.201c-16.414-0.105-32.28,5.896-44.516,16.837c0.574-12.212,1.031-23.319,1.332-32.892
		c0.552-18.81-14.229-34.515-33.038-35.105c-18.809-0.589-34.544,14.16-35.171,32.967c-0.487,15.842-1.36,35.452-2.548,57.645
		c-2.896-26.008-6.346-48.907-10.244-67.233c-2.331-11.087-10.808-19.859-21.809-22.566c-11.001-2.708-22.581,1.127-29.791,9.866
		c-5.565,6.709-7.828,15.56-6.167,24.117c6.941,39.455,11.593,79.279,13.931,119.272c-11.131-36.85-37.228-60.243-70.915-60.243
		c-85.467,0-136.533,95.45-136.533,187.733c0,97.692,36.942,196.267,119.467,196.267c60.625,0,76.8-48.275,76.8-76.8
		c-0.527-16.246-6.456-31.853-16.85-44.35c0.918-12.825,12.629-31.985,32.352-53.418c-0.002,58.519-3.828,116.976-11.452,174.997
		c-1.227,8.437,1.28,16.99,6.867,23.429c5.233,6.056,12.69,9.742,20.679,10.222c7.989,0.48,15.833-2.287,21.753-7.673
		c6.678,6.835,16.601,9.393,25.751,6.636c9.15-2.756,16.009-10.369,17.8-19.756c7.356-38.009,15.427-115.758,22.169-194.828
		c8.34,1.654,16.832,2.422,25.333,2.292c-0.011,2.116,0.081,4.018,0.215,5.581c-15.092,14.124-24.109,33.556-25.15,54.2
		c0,28.525,16.175,76.8,76.8,76.8c82.525,0,119.467-98.575,119.467-196.267C512.001,146.651,460.934,51.201,375.468,51.201z
		 M175.956,274.521c-0.072-0.18-0.128-0.37-0.201-0.549c-0.454-1.114-0.95-2.194-1.459-3.258c-0.066-0.136-0.122-0.282-0.189-0.417
		c-1.642-3.334-3.534-6.539-5.659-9.587l-0.047-0.071c4.195-1.64,8.242-3.633,12.099-5.959c10.247,2.079,20.833,1.79,30.951-0.845
		c0.013,0.832,0.012,1.669,0.025,2.502c-0.282,0.019-0.563,0.053-0.842,0.102C198.298,260.841,186.628,266.926,175.956,274.521z
		 M211.189,235.64c-3.846,1.79-7.99,2.851-12.222,3.132c5.369-6.618,9.332-14.26,11.648-22.461
		C210.837,222.714,211.028,229.157,211.189,235.64L211.189,235.64z M119.468,460.801c-70.733,0-102.4-90.004-102.4-179.2
		c0-83.891,44.683-170.667,119.467-170.667c41.042,0,59.733,44.233,59.733,85.333c0.628,16.983-7.777,33.031-22.096,42.184
		c-0.063,0.039-0.142,0.042-0.204,0.082c-6.446,4.153-13.56,7.161-21.029,8.893c-28.144-0.211-42.91-13.182-50.796-44.697
		c-0.74-2.956-3.001-5.293-5.931-6.131c-2.93-0.837-6.085-0.048-8.275,2.071c-2.19,2.119-3.084,5.245-2.344,8.202
		c9.477,37.913,29.934,56.255,64.137,57.537c6.727,7.064,11.066,16.062,12.405,25.725c-0.59,7.05-4.576,13.372-10.684,16.943
		c-15.59,0.384-30.817-4.728-43.017-14.443c-3.34-3.288-8.706-3.267-12.019,0.047c-3.314,3.314-3.335,8.68-0.047,12.019
		c14.846,12.421,33.573,19.25,52.929,19.302c4.19,6.796,5.843,14.854,4.667,22.75c-2.186,2.852-10.809,11.649-34.496,11.649
		c-19.303,0.039-38.512-2.689-57.042-8.1c-4.471-1.483-9.298,0.936-10.786,5.405c-1.488,4.469,0.926,9.299,5.394,10.791
		c20.259,6.035,41.295,9.058,62.433,8.971c15.33,1.001,30.508-3.561,42.746-12.848c0.588,0.692,1.154,1.32,1.762,2.065l0.017,0.014
		c9.128,9.997,14.503,22.851,15.208,36.369C179.201,407.18,177.526,460.801,119.468,460.801z M170.259,330.414l-0.048-0.178
		c-0.393-1.871-0.898-3.717-1.512-5.528c-0.148-0.441-0.31-0.872-0.473-1.312c-0.708-1.969-1.569-3.88-2.575-5.715
		c7.236-5.92,11.976-14.348,13.276-23.606c9.738-8.361,20.798-15.044,32.729-19.775c0.009,1.499,0.039,2.993,0.045,4.493
		C195.45,293.892,181.489,311.282,170.259,330.414z M229.651,494.934c-3.67,0.003-7.16-1.593-9.558-4.371
		c-2.361-2.683-3.419-6.27-2.892-9.804c19.642-134.688,12.542-348.217-6.933-449.154c-0.703-3.557,0.244-7.24,2.575-10.017
		c3.039-3.689,7.927-5.306,12.566-4.157c4.64,1.149,8.208,4.859,9.175,9.54c11.239,63.302,17.483,127.389,18.675,191.67v0.022
		c3.131,78.693,0.725,157.509-7.2,235.864c-0.06,0.531-0.117,1.075-0.179,1.604c-0.371,3.173-0.767,6.242-1.161,9.318
		c-0.207,1.607-0.404,3.243-0.618,4.83c-0.282,2.092-0.581,4.098-0.874,6.142c-0.382,2.665-0.755,5.359-1.159,7.959
		C241.124,490.494,235.837,494.988,229.651,494.934z M276.418,487.91c-0.811,4.094-4.41,7.039-8.583,7.025
		c-2.528,0.021-4.936-1.079-6.575-3.004c-1.674-1.932-2.409-4.505-2.008-7.029c0.177-1.161,0.335-2.395,0.508-3.572
		c0.441-2.995,0.879-5.992,1.292-9.067c0.124-0.924,0.24-1.887,0.36-2.821c0.483-3.693,0.955-7.415,1.401-11.213
		c0.042-0.359,0.08-0.732,0.122-1.092c1.627-14.002,3.002-28.671,4.143-43.84l0.002-0.03c0.382-5.084,0.738-10.22,1.066-15.407
		c0.042-0.648,0.079-1.306,0.119-1.956c0.28-4.501,0.542-9.032,0.784-13.594c0.077-1.448,0.146-2.915,0.219-4.372
		c0.188-3.737,0.367-7.482,0.527-11.255c0.101-2.325,0.192-4.67,0.283-7.017c0.108-2.825,0.211-5.655,0.309-8.492
		c0.11-3.247,0.211-6.514,0.303-9.798c0.051-1.844,0.1-3.69,0.146-5.537c0.106-4.157,0.198-8.339,0.275-12.546
		c0.015-0.781,0.028-1.562,0.041-2.344c0.569-32.973,0.321-67.421-0.826-102.393c5.458-73.475,9.5-142.617,10.817-185.021
		c0.316-9.399,8.181-16.768,17.58-16.473c9.4,0.295,16.786,8.144,16.512,17.544c-0.498,15.524-1.36,34.738-2.56,57.118
		c-7.06,13.74-11.457,28.692-12.957,44.067c-0.08,0.702-0.144,1.406-0.215,2.113c-0.495,5.095-0.835,10.294-0.835,15.698
		c0.011,2.707,0.163,5.412,0.454,8.104c0.081,0.789,0.198,1.561,0.302,2.34c0.262,1.932,0.594,3.808,0.996,5.628
		c0.165,0.755,0.309,1.519,0.498,2.261c0.573,2.259,1.267,4.485,2.079,6.669c0.29,0.78,0.64,1.527,0.96,2.293
		c0.629,1.495,1.298,2.947,2.019,4.349c0.267,0.522,0.459,1.084,0.742,1.597C299.351,291.935,287.076,432.801,276.418,487.91z
		 M343.601,217.972c-4.581,6.366-7.918,13.539-9.835,21.144c-4.759,0.299-9.461,1.198-13.995,2.675
		c0.953-12.299,1.864-24.419,2.719-36.185C328.829,210.818,335.954,214.992,343.601,217.972L343.601,217.972z M318.281,260.706
		c4.899-2.482,10.228-4.001,15.699-4.475c2.169,7.349,6.475,13.887,12.371,18.782c-1.154,2.099-2.118,4.297-2.882,6.568
		c-8.966,0.336-17.936-0.506-26.682-2.507C317.295,272.937,317.793,266.814,318.281,260.706L318.281,260.706z M392.534,418.134
		c-58.058,0-59.733-53.621-59.733-59.733c0.83-14.45,6.845-28.116,16.941-38.488c12.242,9.318,27.441,13.895,42.793,12.888
		c21.138,0.087,42.175-2.936,62.433-8.971c4.471-1.491,6.887-6.325,5.396-10.796s-6.325-6.887-10.796-5.396
		c-18.522,5.43-37.732,8.156-57.033,8.096c-23.594,0-32.265-8.745-34.492-11.634c-1.18-7.901,0.471-15.964,4.662-22.765
		c19.356-0.052,38.083-6.881,52.929-19.302c3.306-3.325,3.308-8.695,0.006-12.023c-3.302-3.328-8.672-3.368-12.023-0.089
		c-12.203,9.742-27.45,14.872-43.06,14.488c-6.11-3.569-10.099-9.89-10.689-16.942c1.339-9.663,5.678-18.661,12.405-25.725
		c34.202-1.282,54.659-19.624,64.137-57.537c0.74-2.956-0.154-6.083-2.344-8.202c-2.19-2.119-5.345-2.908-8.275-2.071
		c-2.93,0.837-5.191,3.175-5.931,6.131c-7.892,31.544-22.677,44.514-50.871,44.702c-14.84-3.001-27.887-11.757-36.288-24.352
		l-0.009-0.02c-2.316-3.828-4.059-7.974-5.175-12.306c-0.231-0.885-0.354-1.877-0.544-2.804c-0.277-1.362-0.599-2.701-0.775-4.118
		c-0.311-2.509-0.466-5.036-0.464-7.564c0-4.725,0.297-9.317,0.742-13.827c0.105-1.028,0.22-2.05,0.349-3.074
		c0.425-3.465,1.025-6.824,1.712-10.127c0.301-1.44,0.589-2.882,0.94-4.301c0.843-3.394,1.84-6.674,2.965-9.852
		c0.323-0.926,0.631-1.86,0.978-2.77c1.41-3.681,3.059-7.265,4.936-10.731c8.459-18.464,26.803-30.399,47.111-30.652
		c74.783,0,119.467,86.775,119.467,170.667C494.934,328.13,463.268,418.134,392.534,418.134z"/>
</g>
<g>
</g>
<g>
</g>
<g>
</g>
<g>
</g>
<g>
</g>
<g>
</g>
<g>
</g>
<g>
</g>
<g>
</g>
<g>
</g>
<g>
</g>
<g>
</g>
<g>
</g>
<g>
</g>
<g>
</g>
</svg>
